<svg width="176" height="36" viewBox="0 0 176 36" fill="none" xmlns="http://www.w3.org/2000/svg">
<g clip-path="url(#clip0_6_6291)">
<path fill-rule="evenodd" clip-rule="evenodd" d="M64.6 2.5V12.4C64.6 17.8 64.8 22.5 65.2 26.7H65.1C63.8 23.2 61.9 19.2 60.1 15.9L53.1 2.5H46.2V35.6H52V25.4C52 19.5 51.9 14.8 51.6 10.8H51.8C53.2 14.4 55.1 18.5 56.9 21.9L64 35.6H70.4V2.5H64.6ZM24.2 34.1C25.7 35 29 36 32.3 36C40 36 44.4 31.8 44.4 26C44.4 21.6 42 18.6 36.8 16.2C32.7 14.3 31.1 13.3 31.1 10.9C31.1 9.1 32.6 7.2 36 7.2C38.7 7.2 40.7 8 41.9 8.6L43.2 3.4C41.6 2.7 39.2 2 36.1 2C28.9 2 24.7 6.2 24.7 11.6C24.7 15.9 27.8 19 32.8 21.2C36.5 22.8 38.1 24.2 38.1 26.6C38.1 29.1 36.3 30.7 32.7 30.7C30 30.7 27.3 29.9 25.5 28.9L24.2 34.1ZM23.1 3.2C22.1 2.7 19.8 2 16.2 2C7.4 2 0 7.8 0 19.4C0 29.3 5.5 36 15.4 36C18.8 36 21.5 35.4 22.7 34.7L21.8 29.6C20.5 30.2 18.4 30.5 16.4 30.5C10.4 30.5 6.6 26.5 6.6 19C6.6 11 11 7.3 16.5 7.3C18.8 7.3 20.5 7.8 21.8 8.4L23.1 3.2Z" fill="#4F4C4D"/>
<path d="M82.6 2.5H71.9V13.2H82.6V2.5Z" fill="#EB2027"/>
<path d="M93.4 13.6001H82.7V24.3001H93.4V13.6001Z" fill="#1F7697"/>
<path d="M82.6 24.7002H71.9V35.4002H82.6V24.7002Z" fill="#B2B035"/>
<path d="M94.8 0C92.4 0 90.5 1.9 90.5 4.3C90.5 6.7 92.4 8.6 94.8 8.6C97.2 8.6 99.1 6.7 99.1 4.3C99.1 1.9 97.2 0 94.8 0ZM94.8 7.8C92.8 7.8 91.2 6.2 91.2 4.2C91.2 2.2 92.8 0.6 94.8 0.6C96.8 0.6 98.4 2.2 98.4 4.2C98.4 6.2 96.8 7.8 94.8 7.8ZM96.7 3.1C96.7 2 95.9 1.6 94.8 1.6H93.1V7H93.8V4.7H94.8L96.1 7H96.9L95.5 4.6C96.2 4.4 96.7 3.9 96.7 3.1ZM94.7 4.1H93.8V2.1H94.7C95.6 2.1 96 2.4 96 3.1C96 3.8 95.6 4.1 94.7 4.1Z" fill="#4F4C4D"/>
<path d="M107.5 15.7001L104.8 16.4001V20.1001H102.4V22.2001H104.8V30.6001C104.8 32.4001 105.1 33.8001 105.9 34.6001C106.6 35.4001 107.6 35.8001 108.9 35.8001C110 35.8001 110.8 35.6001 111.4 35.4001L111.3 33.3001C111 33.4001 110.4 33.5001 109.7 33.5001C108.1 33.5001 107.6 32.4001 107.6 30.5001V22.2001H111.6V20.1001H107.6V15.7001H107.5ZM135.9 26.3001C135.9 23.2001 134.8 20.1001 130.1 20.1001C128.2 20.1001 126.3 20.6001 125.1 21.5001L125.7 23.3001C126.8 22.6001 128.3 22.2001 129.7 22.2001C132.8 22.2001 133.2 24.5001 133.2 25.7001V26.0001C127.3 26.0001 124 28.0001 124 31.7001C124 33.9001 125.6 36.1001 128.7 36.1001C130.9 36.1001 132.5 35.0001 133.4 33.8001H133.5L133.7 35.7001H136.2C136 34.7001 135.9 33.4001 135.9 32.0001V26.3001ZM133.3 30.5001C133.3 30.8001 133.2 31.1001 133.1 31.4001C132.7 32.7001 131.4 34.0001 129.4 34.0001C128 34.0001 126.8 33.1001 126.8 31.4001C126.8 28.4001 130.2 27.9001 133.3 28.0001V30.5001ZM117.6 23.4001H117.5L117.4 20.4001H115C115.1 21.8001 115.1 23.4001 115.1 25.2001V35.7001H117.8V27.6001C117.8 27.1001 117.9 26.7001 117.9 26.3001C118.3 24.2001 119.7 22.7001 121.6 22.7001C122 22.7001 122.3 22.7001 122.5 22.8001V20.2001C122.2 20.1001 122 20.1001 121.7 20.1001C120 20.0001 118.3 21.3001 117.6 23.4001ZM161.1 20.0001C156.7 20.0001 153.9 23.6001 153.9 28.2001C153.9 32.8001 156.7 35.9001 161.4 35.9001C163.8 35.9001 165.5 35.4001 166.5 35.0001L166 33.0001C165 33.4001 163.8 33.8001 161.8 33.8001C159 33.8001 156.6 32.3001 156.6 28.5001H167.3C167.3 28.2001 167.4 27.8001 167.4 27.2001C167.4 24.4001 166.1 20.0001 161.1 20.0001ZM156.6 26.5001C156.8 24.6001 158.1 22.0001 160.9 22.0001C164 22.0001 164.8 24.7001 164.7 26.5001H156.6ZM146.9 29.0001C146.4 30.4001 146 31.6001 145.6 32.9001H145.5C145.2 31.6001 144.8 30.4001 144.3 29.0001L141.3 20.4001H138.3L144.1 35.7001H146.7L152.7 20.4001H149.8L146.9 29.0001ZM172.9 9.70006C173.8 10.1001 174.8 10.4001 175.7 10.8001C175.7 10.5001 175.7 10.2001 175.6 10.0001C175.3 9.80006 175.1 9.60006 174.8 9.50006C174.8 9.50006 174.8 9.50006 174.8 9.40006C174.8 9.20006 174.8 8.90006 174.7 8.70006C174.7 8.60006 174.6 8.50006 174.5 8.40006C174.4 8.30006 174.3 8.30006 174.2 8.40006L174.1 8.50006C174 8.60006 174 8.70006 174 8.80006C174 8.80006 174 8.90006 174 9.00006C173.7 8.80006 173.3 8.50006 173 8.30006C173 8.30006 173 8.30006 173 8.20006C173 7.80006 172.9 7.40006 172.9 7.10006C172.9 6.90006 172.8 6.70006 172.8 6.40006C172.8 6.20006 172.7 6.10006 172.6 5.90006C172.5 5.70006 172.3 5.70006 172.1 5.80006C172 5.90006 172 5.90006 171.9 6.00006C171.8 6.20006 171.7 6.40006 171.7 6.60006C171.6 7.10006 171.6 7.60006 171.5 8.20006C171.5 8.20006 171.5 8.20006 171.5 8.30006C171.2 8.50006 170.9 8.70006 170.6 9.00006L170.5 9.10006C170.5 9.00006 170.5 9.00006 170.4 8.90006C170.4 8.80006 170.3 8.70006 170.2 8.60006C170.1 8.50006 170 8.50006 169.9 8.60006C169.8 8.70006 169.8 8.70006 169.8 8.80006C169.7 9.10006 169.7 9.30006 169.7 9.60006C169.7 9.60006 169.7 9.60006 169.7 9.70006C169.4 9.90006 169.2 10.1001 168.9 10.2001C168.9 10.2001 168.9 10.2001 168.9 10.3001C168.9 10.6001 168.9 10.8001 168.8 11.1001C169.8 10.7001 170.7 10.4001 171.6 10.0001C171.7 10.9001 171.8 11.8001 171.9 12.7001C171.9 12.7001 171.9 12.7001 171.9 12.8001C171.6 13.0001 171.3 13.2001 171 13.4001V13.5001V35.9001H173.8V13.5001C173.8 13.4001 173.8 13.3001 173.8 13.1001C173.5 12.9001 173.2 12.7001 172.9 12.5001C172.9 12.5001 172.9 12.5001 172.9 12.4001C172.8 11.5001 172.8 10.7001 172.9 9.70006Z" fill="black"/>
</g>
<defs>
<clipPath id="clip0_6_6291">
<rect width="175.8" height="36" fill="white"/>
</clipPath>
</defs>
</svg>
