<svg width="22" height="22" viewBox="0 0 22 22" fill="none" xmlns="http://www.w3.org/2000/svg">
<path d="M17.8686 10.542C17.725 15.4503 15.1801 18.1147 11.4592 19.7087C9.44591 18.8464 7.77675 17.6706 6.64581 15.9957" stroke="#475569" stroke-linejoin="round"/>
<path d="M17.875 8.70866V4.70081L11.4614 2.29199L5.04169 4.70081V10.0967C5.04169 11.2828 5.17653 12.3427 5.43022 13.292" stroke="#475569" stroke-linejoin="round"/>
<path d="M4.25004 14.0397C3.62065 13.4638 2.87986 12.2628 2.60587 12.194C2.60587 12.194 1.78211 14.2264 1.83583 15.5833C1.88956 16.9403 3.16325 17.7078 4.50522 17.0594C5.84721 16.4109 20.1689 9.16667 20.1689 9.16667L16.0439 8.25L4.25004 14.0397Z" fill="#475569" stroke="#475569" stroke-linecap="round" stroke-linejoin="round"/>
<path d="M12.8355 9.625L8.7102 8.25L7.79358 8.70833L9.16858 11.4583" stroke="#475569" stroke-linecap="round" stroke-linejoin="round"/>
</svg>
