<svg width="32" height="32" viewBox="0 0 32 32" fill="none" xmlns="http://www.w3.org/2000/svg">
<circle cx="16" cy="16" r="16" fill="white"/>
<path d="M9.33341 23.5C8.89139 23.5 8.46746 23.3243 8.1549 23.0117C7.84234 22.6992 7.66675 22.2754 7.66675 21.8333V11.8333C7.66785 11.3916 7.8438 10.9681 8.15612 10.6558C8.46844 10.3434 8.89173 10.1678 9.33341 10.1667H11.9751L13.5001 8.5H18.5001L20.0234 10.1667H22.6667C23.1084 10.168 23.5315 10.3443 23.8438 10.6566C24.1561 10.9689 24.3321 11.3917 24.3334 11.8333V21.8333C24.3321 22.275 24.1561 22.6978 23.8438 23.0101C23.5315 23.3224 23.1084 23.4987 22.6667 23.5H9.33341ZM11.8334 16.8333C11.8334 17.9384 12.2724 18.9979 13.0538 19.7793C13.8352 20.5607 14.895 21 16.0001 21C17.1052 21 18.165 20.5607 18.9464 19.7793C19.7278 18.9979 20.1667 17.9384 20.1667 16.8333C20.1667 15.7283 19.7278 14.6688 18.9464 13.8874C18.165 13.106 17.1052 12.6667 16.0001 12.6667C14.895 12.6667 13.8352 13.106 13.0538 13.8874C12.2724 14.6688 11.8334 15.7283 11.8334 16.8333ZM13.3334 16.8333C13.3334 16.1261 13.6144 15.4479 14.1145 14.9478C14.6146 14.4477 15.2928 14.1665 16.0001 14.1665C16.7073 14.1665 17.3856 14.4477 17.8857 14.9478C18.3858 15.4479 18.6667 16.1261 18.6667 16.8333C18.6667 17.5406 18.3858 18.2188 17.8857 18.7189C17.3856 19.219 16.7073 19.5002 16.0001 19.5002C15.2928 19.5002 14.6146 19.219 14.1145 18.7189C13.6144 18.2188 13.3334 17.5406 13.3334 16.8333Z" fill="#475569"/>
</svg>
