<svg width="22" height="22" viewBox="0 0 22 22" fill="none" xmlns="http://www.w3.org/2000/svg">
<path fill-rule="evenodd" clip-rule="evenodd" d="M10.997 6.41771C10.9968 5.70187 11.1644 4.99593 11.4862 4.35648C11.808 3.71702 12.2752 3.16183 12.8503 2.73538C13.4254 2.30894 14.0924 2.0231 14.7978 1.90078C15.5033 1.77846 16.2276 1.82305 16.9128 2.03099C17.0211 2.06379 17.119 2.12407 17.197 2.20598C17.2751 2.28788 17.3306 2.3886 17.3581 2.49833C17.3856 2.60805 17.3843 2.72303 17.3541 2.83206C17.324 2.9411 17.2661 3.04046 17.1861 3.12047L14.2871 6.01788C14.3421 6.43255 14.5281 6.83325 14.8468 7.15188C15.1656 7.47052 15.5663 7.65646 15.982 7.71059L18.8792 4.81317C18.9592 4.7332 19.0586 4.67532 19.1676 4.64518C19.2767 4.61504 19.3917 4.61366 19.5014 4.64118C19.6112 4.66869 19.7119 4.72417 19.7938 4.8022C19.8758 4.88023 19.9361 4.97815 19.9689 5.08641C20.1865 5.803 20.2251 6.56199 20.0815 7.29697C19.9378 8.03195 19.6162 8.72053 19.1447 9.30248C18.6733 9.88443 18.0663 10.342 17.3771 10.6352C16.6878 10.9284 15.9372 11.0482 15.1909 10.9843C14.302 10.9092 13.558 11.0716 13.1747 11.5377L6.93153 19.1195C6.6759 19.4284 6.35858 19.6804 5.99989 19.8596C5.6412 20.0387 5.24905 20.141 4.84854 20.1599C4.44803 20.1787 4.04799 20.1138 3.67404 19.9692C3.30009 19.8245 2.96047 19.6034 2.67692 19.32C2.39338 19.0366 2.17215 18.6971 2.02742 18.3232C1.88268 17.9494 1.81763 17.5495 1.83642 17.1491C1.8552 16.7486 1.95742 16.3565 2.13653 15.9979C2.31563 15.6393 2.56767 15.3219 2.87651 15.0663L10.4591 8.82364C10.9245 8.43953 11.0878 7.69662 11.0127 6.80793C11.0021 6.67813 10.9968 6.54794 10.997 6.41771ZM4.1138 17.2208C4.1138 17.0472 4.18279 16.8806 4.30561 16.7579C4.42842 16.6351 4.59499 16.5661 4.76868 16.5661H4.77566C4.94935 16.5661 5.11592 16.6351 5.23873 16.7579C5.36155 16.8806 5.43054 17.0472 5.43054 17.2208V17.2278C5.43054 17.4015 5.36155 17.568 5.23873 17.6908C5.11592 17.8136 4.94935 17.8825 4.77566 17.8825H4.76868C4.59499 17.8825 4.42842 17.8136 4.30561 17.6908C4.18279 17.568 4.1138 17.4015 4.1138 17.2278V17.2208Z" fill="#475569"/>
<path d="M9.31704 8.06764L7.39518 6.14708V4.78C7.39517 4.66697 7.3659 4.55586 7.3102 4.45749C7.2545 4.35912 7.17428 4.27685 7.07735 4.21867L3.80295 2.25447C3.67771 2.17941 3.53098 2.14836 3.38606 2.16623C3.24114 2.1841 3.10636 2.24988 3.00312 2.35312L2.34824 3.00785C2.24498 3.11107 2.17919 3.24582 2.16131 3.39071C2.14343 3.53559 2.1745 3.68229 2.24957 3.8075L4.21421 7.08117C4.2724 7.17809 4.35469 7.25829 4.45308 7.31397C4.55147 7.36966 4.6626 7.39893 4.77566 7.39894H6.1413L7.94179 9.19902L9.31704 8.06676V8.06764Z" fill="#475569"/>
<path fill-rule="evenodd" clip-rule="evenodd" d="M11.4825 15.653L15.135 19.3037C15.4086 19.5773 15.7335 19.7944 16.0911 19.9424C16.4486 20.0905 16.8318 20.1667 17.2188 20.1667C17.6058 20.1667 17.989 20.0905 18.3466 19.9424C18.7041 19.7944 19.029 19.5773 19.3026 19.3037C19.5763 19.0302 19.7934 18.7054 19.9415 18.3479C20.0896 17.9904 20.1658 17.6073 20.1658 17.2204C20.1658 16.8335 20.0896 16.4503 19.9415 16.0929C19.7934 15.7354 19.5763 15.4106 19.3026 15.137L16.4159 12.2518C15.9734 12.3145 15.5253 12.3271 15.08 12.2894C14.7359 12.2597 14.4845 12.2841 14.3229 12.326C14.2718 12.3368 14.2226 12.3554 14.1771 12.381L11.4825 15.653ZM14.4635 14.4657C14.5863 14.3431 14.7528 14.2742 14.9263 14.2742C15.0998 14.2742 15.2663 14.3431 15.3891 14.4657L17.0263 16.1034C17.0906 16.1633 17.1422 16.2356 17.178 16.3159C17.2138 16.3963 17.2331 16.483 17.2346 16.5709C17.2362 16.6588 17.22 16.7461 17.1871 16.8276C17.1541 16.9092 17.1051 16.9832 17.0429 17.0454C16.9807 17.1076 16.9066 17.1566 16.8251 17.1895C16.7436 17.2224 16.6562 17.2386 16.5683 17.2371C16.4804 17.2355 16.3936 17.2163 16.3133 17.1805C16.233 17.1447 16.1607 17.0931 16.1007 17.0288L14.4635 15.3919C14.3409 15.2692 14.272 15.1028 14.272 14.9293C14.272 14.7557 14.3409 14.5893 14.4635 14.4666V14.4657Z" fill="#475569"/>
</svg>
