<svg width="24" height="24" viewBox="0 0 24 24" fill="none" xmlns="http://www.w3.org/2000/svg">
<path d="M12.1361 3.67383C6.72597 3.67383 2.34021 8.05961 2.34021 13.4697C2.34021 16.0314 3.17945 18.5814 4.78919 20.3269H19.4831C21.0928 18.5814 21.932 16.0314 21.932 13.4697C21.932 8.05961 17.5463 3.67383 12.1361 3.67383Z" stroke="#475569" stroke-width="0.979592" stroke-linecap="round" stroke-linejoin="round"/>
<path d="M12.1361 16.8979C13.2181 16.8979 14.0952 16.0207 14.0952 14.9387C14.0952 13.8566 13.2181 12.9795 12.1361 12.9795C11.054 12.9795 10.1769 13.8566 10.1769 14.9387C10.1769 16.0207 11.054 16.8979 12.1361 16.8979Z" fill="white" stroke="#475569" stroke-width="0.979592" stroke-linecap="round" stroke-linejoin="round"/>
<path d="M12.1361 10.041V12.9798" stroke="#475569" stroke-width="0.979592" stroke-linecap="round" stroke-linejoin="round"/>
<path d="M12.1361 6.12207V7.10166" stroke="#475569" stroke-width="0.979592" stroke-linecap="round" stroke-linejoin="round"/>
<path d="M4.78918 13.959H5.76876" stroke="#475569" stroke-width="0.979592" stroke-linecap="round" stroke-linejoin="round"/>
<path d="M6.74829 9.06152L7.44096 9.75419" stroke="#475569" stroke-width="0.979592" stroke-linecap="round" stroke-linejoin="round"/>
<path d="M18.5034 13.959H19.483" stroke="#475569" stroke-width="0.979592" stroke-linecap="round" stroke-linejoin="round"/>
<path d="M17.0341 9.75424L17.7267 9.06152" stroke="#475569" stroke-width="0.979592" stroke-linecap="round" stroke-linejoin="round"/>
</svg>
