<svg width="12" height="8" viewBox="0 0 12 8" fill="none" xmlns="http://www.w3.org/2000/svg">
<path d="M10.3871 0.209704L10.2929 0.292893L8 2.585L6.70711 1.29289C6.34662 0.932409 5.77939 0.904679 5.3871 1.2097L5.29289 1.29289L2.5 4.085L1.70711 3.29289C1.10453 2.69032 0.0928192 3.07233 0.00598335 3.88637L0 4L0.00174999 7.05938L0.0107212 7.14695L0.0357208 7.26584L0.0598946 7.34167L0.0936737 7.42322L0.145995 7.52071L0.212928 7.61702L0.292911 7.70714C0.328287 7.7425 0.365675 7.77469 0.404694 7.80367L0.515938 7.87533L0.628664 7.92877L0.734007 7.96415L0.851533 7.98898L0.91075 7.99603L1 8H4C4.85217 8 5.29743 7.01449 4.78323 6.37747L4.70711 6.29289L3.915 5.5L6 3.415L7.29289 4.70711C7.65338 5.06759 8.22061 5.09532 8.6129 4.7903L8.70711 4.70711L11.7071 1.70711C12.0976 1.31658 12.0976 0.683418 11.7071 0.292893C11.3466 -0.0675907 10.7794 -0.0953207 10.3871 0.209704Z" fill="#EF4444"/>
</svg>
