<svg width="48" height="48" viewBox="0 0 48 48" fill="none" xmlns="http://www.w3.org/2000/svg">
<rect width="48" height="48" rx="24" fill="#FEE2E2"/>
<path d="M26.74 20.9995L26.394 29.9995M21.606 29.9995L21.26 20.9995M31.228 17.7895C31.57 17.8415 31.91 17.8965 32.25 17.9555M31.228 17.7895L30.16 31.6725C30.1164 32.2378 29.8611 32.7657 29.445 33.1508C29.029 33.5359 28.4829 33.7497 27.916 33.7495H20.084C19.5171 33.7497 18.971 33.5359 18.555 33.1508C18.1389 32.7657 17.8836 32.2378 17.84 31.6725L16.772 17.7895M31.228 17.7895C30.0739 17.6151 28.9138 17.4826 27.75 17.3925M16.772 17.7895C16.43 17.8405 16.09 17.8955 15.75 17.9545M16.772 17.7895C17.9261 17.6151 19.0862 17.4826 20.25 17.3925M27.75 17.3925V16.4765C27.75 15.2965 26.84 14.3125 25.66 14.2755C24.5536 14.2402 23.4464 14.2402 22.34 14.2755C21.16 14.3125 20.25 15.2975 20.25 16.4765V17.3925M27.75 17.3925C25.2537 17.1996 22.7463 17.1996 20.25 17.3925" stroke="#EF4444" stroke-width="1.5" stroke-linecap="round" stroke-linejoin="round"/>
</svg>
