<svg width="1600" height="8" viewBox="0 0 1600 8" fill="none" xmlns="http://www.w3.org/2000/svg">
<g clip-path="url(#clip0_139_2029)">
<path d="M5.33333 0H12L6.66667 8H0L5.33333 0Z" fill="#D1D5DB"/>
<path d="M17.3333 0H24L18.6667 8H12L17.3333 0Z" fill="#D1D5DB"/>
<path d="M29.3333 0H36L30.6667 8H24L29.3333 0Z" fill="#D1D5DB"/>
<path d="M41.3333 0H48L42.6667 8H36L41.3333 0Z" fill="#D1D5DB"/>
<path d="M53.3333 0H60L54.6667 8H48L53.3333 0Z" fill="#D1D5DB"/>
<path d="M65.3333 0H72L66.6667 8H60L65.3333 0Z" fill="#D1D5DB"/>
<path d="M77.3333 0H84L78.6667 8H72L77.3333 0Z" fill="#D1D5DB"/>
<path d="M89.3333 0H96L90.6667 8H84L89.3333 0Z" fill="#D1D5DB"/>
<path d="M101.333 0H108L102.667 8H96L101.333 0Z" fill="#D1D5DB"/>
<path d="M113.333 0H120L114.667 8H108L113.333 0Z" fill="#D1D5DB"/>
<path d="M125.333 0H132L126.667 8H120L125.333 0Z" fill="#D1D5DB"/>
<path d="M137.333 0H144L138.667 8H132L137.333 0Z" fill="#D1D5DB"/>
<path d="M149.333 0H156L150.667 8H144L149.333 0Z" fill="#D1D5DB"/>
<path d="M161.333 0H168L162.667 8H156L161.333 0Z" fill="#D1D5DB"/>
<path d="M173.333 0H180L174.667 8H168L173.333 0Z" fill="#D1D5DB"/>
<path d="M185.333 0H192L186.667 8H180L185.333 0Z" fill="#D1D5DB"/>
<path d="M197.333 0H204L198.667 8H192L197.333 0Z" fill="#D1D5DB"/>
<path d="M209.333 0H216L210.667 8H204L209.333 0Z" fill="#D1D5DB"/>
<path d="M221.333 0H228L222.667 8H216L221.333 0Z" fill="#D1D5DB"/>
<path d="M233.333 0H240L234.667 8H228L233.333 0Z" fill="#D1D5DB"/>
<path d="M245.333 0H252L246.667 8H240L245.333 0Z" fill="#D1D5DB"/>
<path d="M257.333 0H264L258.667 8H252L257.333 0Z" fill="#D1D5DB"/>
<path d="M269.333 0H276L270.667 8H264L269.333 0Z" fill="#D1D5DB"/>
<path d="M281.333 0H288L282.667 8H276L281.333 0Z" fill="#D1D5DB"/>
<path d="M293.333 0H300L294.667 8H288L293.333 0Z" fill="#D1D5DB"/>
<path d="M305.333 0H312L306.667 8H300L305.333 0Z" fill="#D1D5DB"/>
<path d="M317.333 0H324L318.667 8H312L317.333 0Z" fill="#D1D5DB"/>
<path d="M329.333 0H336L330.667 8H324L329.333 0Z" fill="#D1D5DB"/>
<path d="M341.333 0H348L342.667 8H336L341.333 0Z" fill="#D1D5DB"/>
<path d="M353.333 0H360L354.667 8H348L353.333 0Z" fill="#D1D5DB"/>
<path d="M365.333 0H372L366.667 8H360L365.333 0Z" fill="#D1D5DB"/>
<path d="M377.333 0H384L378.667 8H372L377.333 0Z" fill="#D1D5DB"/>
<path d="M389.333 0H396L390.667 8H384L389.333 0Z" fill="#D1D5DB"/>
<path d="M401.333 0H408L402.667 8H396L401.333 0Z" fill="#D1D5DB"/>
<path d="M413.333 0H420L414.667 8H408L413.333 0Z" fill="#D1D5DB"/>
<path d="M425.333 0H432L426.667 8H420L425.333 0Z" fill="#D1D5DB"/>
<path d="M437.333 0H444L438.667 8H432L437.333 0Z" fill="#D1D5DB"/>
<path d="M449.333 0H456L450.667 8H444L449.333 0Z" fill="#D1D5DB"/>
<path d="M461.333 0H468L462.667 8H456L461.333 0Z" fill="#D1D5DB"/>
<path d="M473.333 0H480L474.667 8H468L473.333 0Z" fill="#D1D5DB"/>
<path d="M485.333 0H492L486.667 8H480L485.333 0Z" fill="#D1D5DB"/>
<path d="M497.333 0H504L498.667 8H492L497.333 0Z" fill="#D1D5DB"/>
<path d="M509.333 0H516L510.667 8H504L509.333 0Z" fill="#D1D5DB"/>
<path d="M521.333 0H528L522.667 8H516L521.333 0Z" fill="#D1D5DB"/>
<path d="M533.333 0H540L534.667 8H528L533.333 0Z" fill="#D1D5DB"/>
<path d="M545.333 0H552L546.667 8H540L545.333 0Z" fill="#D1D5DB"/>
<path d="M557.333 0H564L558.667 8H552L557.333 0Z" fill="#D1D5DB"/>
<path d="M569.333 0H576L570.667 8H564L569.333 0Z" fill="#D1D5DB"/>
<path d="M581.333 0H588L582.667 8H576L581.333 0Z" fill="#D1D5DB"/>
<path d="M593.333 0H600L594.667 8H588L593.333 0Z" fill="#D1D5DB"/>
<path d="M605.333 0H612L606.667 8H600L605.333 0Z" fill="#D1D5DB"/>
<path d="M617.333 0H624L618.667 8H612L617.333 0Z" fill="#D1D5DB"/>
<path d="M629.333 0H636L630.667 8H624L629.333 0Z" fill="#D1D5DB"/>
<path d="M641.333 0H648L642.667 8H636L641.333 0Z" fill="#D1D5DB"/>
<path d="M653.333 0H660L654.667 8H648L653.333 0Z" fill="#D1D5DB"/>
<path d="M665.333 0H672L666.667 8H660L665.333 0Z" fill="#D1D5DB"/>
<path d="M677.333 0H684L678.667 8H672L677.333 0Z" fill="#D1D5DB"/>
<path d="M689.333 0H696L690.667 8H684L689.333 0Z" fill="#D1D5DB"/>
<path d="M701.333 0H708L702.667 8H696L701.333 0Z" fill="#D1D5DB"/>
<path d="M713.333 0H720L714.667 8H708L713.333 0Z" fill="#D1D5DB"/>
<path d="M725.333 0H732L726.667 8H720L725.333 0Z" fill="#D1D5DB"/>
<path d="M737.333 0H744L738.667 8H732L737.333 0Z" fill="#D1D5DB"/>
<path d="M749.333 0H756L750.667 8H744L749.333 0Z" fill="#D1D5DB"/>
<path d="M761.333 0H768L762.667 8H756L761.333 0Z" fill="#D1D5DB"/>
<path d="M773.333 0H780L774.667 8H768L773.333 0Z" fill="#D1D5DB"/>
<path d="M785.333 0H792L786.667 8H780L785.333 0Z" fill="#D1D5DB"/>
<path d="M797.333 0H804L798.667 8H792L797.333 0Z" fill="#D1D5DB"/>
<path d="M809.333 0H816L810.667 8H804L809.333 0Z" fill="#D1D5DB"/>
<path d="M821.333 0H828L822.667 8H816L821.333 0Z" fill="#D1D5DB"/>
<path d="M833.333 0H840L834.667 8H828L833.333 0Z" fill="#D1D5DB"/>
<path d="M845.333 0H852L846.667 8H840L845.333 0Z" fill="#D1D5DB"/>
<path d="M857.333 0H864L858.667 8H852L857.333 0Z" fill="#D1D5DB"/>
<path d="M869.333 0H876L870.667 8H864L869.333 0Z" fill="#D1D5DB"/>
<path d="M881.333 0H888L882.667 8H876L881.333 0Z" fill="#D1D5DB"/>
<path d="M893.333 0H900L894.667 8H888L893.333 0Z" fill="#D1D5DB"/>
<path d="M905.333 0H912L906.667 8H900L905.333 0Z" fill="#D1D5DB"/>
<path d="M917.333 0H924L918.667 8H912L917.333 0Z" fill="#D1D5DB"/>
<path d="M929.333 0H936L930.667 8H924L929.333 0Z" fill="#D1D5DB"/>
<path d="M941.333 0H948L942.667 8H936L941.333 0Z" fill="#D1D5DB"/>
<path d="M953.333 0H960L954.667 8H948L953.333 0Z" fill="#D1D5DB"/>
<path d="M965.333 0H972L966.667 8H960L965.333 0Z" fill="#D1D5DB"/>
<path d="M977.333 0H984L978.667 8H972L977.333 0Z" fill="#D1D5DB"/>
<path d="M989.333 0H996L990.667 8H984L989.333 0Z" fill="#D1D5DB"/>
<path d="M1001.33 0H1008L1002.67 8H996L1001.33 0Z" fill="#D1D5DB"/>
<path d="M1013.33 0H1020L1014.67 8H1008L1013.33 0Z" fill="#D1D5DB"/>
<path d="M1025.33 0H1032L1026.67 8H1020L1025.33 0Z" fill="#D1D5DB"/>
<path d="M1037.33 0H1044L1038.67 8H1032L1037.33 0Z" fill="#D1D5DB"/>
<path d="M1049.33 0H1056L1050.67 8H1044L1049.33 0Z" fill="#D1D5DB"/>
<path d="M1061.33 0H1068L1062.67 8H1056L1061.33 0Z" fill="#D1D5DB"/>
<path d="M1073.33 0H1080L1074.67 8H1068L1073.33 0Z" fill="#D1D5DB"/>
<path d="M1085.33 0H1092L1086.67 8H1080L1085.33 0Z" fill="#D1D5DB"/>
<path d="M1097.33 0H1104L1098.67 8H1092L1097.33 0Z" fill="#D1D5DB"/>
<path d="M1109.33 0H1116L1110.67 8H1104L1109.33 0Z" fill="#D1D5DB"/>
<path d="M1121.33 0H1128L1122.67 8H1116L1121.33 0Z" fill="#D1D5DB"/>
<path d="M1133.33 0H1140L1134.67 8H1128L1133.33 0Z" fill="#D1D5DB"/>
<path d="M1145.33 0H1152L1146.67 8H1140L1145.33 0Z" fill="#D1D5DB"/>
<path d="M1157.33 0H1164L1158.67 8H1152L1157.33 0Z" fill="#D1D5DB"/>
<path d="M1169.33 0H1176L1170.67 8H1164L1169.33 0Z" fill="#D1D5DB"/>
<path d="M1181.33 0H1188L1182.67 8H1176L1181.33 0Z" fill="#D1D5DB"/>
<path d="M1193.33 0H1200L1194.67 8H1188L1193.33 0Z" fill="#D1D5DB"/>
<path d="M1205.33 0H1212L1206.67 8H1200L1205.33 0Z" fill="#D1D5DB"/>
<path d="M1217.33 0H1224L1218.67 8H1212L1217.33 0Z" fill="#D1D5DB"/>
<path d="M1229.33 0H1236L1230.67 8H1224L1229.33 0Z" fill="#D1D5DB"/>
<path d="M1241.33 0H1248L1242.67 8H1236L1241.33 0Z" fill="#D1D5DB"/>
<path d="M1253.33 0H1260L1254.67 8H1248L1253.33 0Z" fill="#D1D5DB"/>
<path d="M1265.33 0H1272L1266.67 8H1260L1265.33 0Z" fill="#D1D5DB"/>
<path d="M1277.33 0H1284L1278.67 8H1272L1277.33 0Z" fill="#D1D5DB"/>
<path d="M1289.33 0H1296L1290.67 8H1284L1289.33 0Z" fill="#D1D5DB"/>
<path d="M1301.33 0H1308L1302.67 8H1296L1301.33 0Z" fill="#D1D5DB"/>
<path d="M1313.33 0H1320L1314.67 8H1308L1313.33 0Z" fill="#D1D5DB"/>
<path d="M1325.33 0H1332L1326.67 8H1320L1325.33 0Z" fill="#D1D5DB"/>
<path d="M1337.33 0H1344L1338.67 8H1332L1337.33 0Z" fill="#D1D5DB"/>
<path d="M1349.33 0H1356L1350.67 8H1344L1349.33 0Z" fill="#D1D5DB"/>
<path d="M1361.33 0H1368L1362.67 8H1356L1361.33 0Z" fill="#D1D5DB"/>
<path d="M1373.33 0H1380L1374.67 8H1368L1373.33 0Z" fill="#D1D5DB"/>
<path d="M1385.33 0H1392L1386.67 8H1380L1385.33 0Z" fill="#D1D5DB"/>
<path d="M1397.33 0H1404L1398.67 8H1392L1397.33 0Z" fill="#D1D5DB"/>
<path d="M1409.33 0H1416L1410.67 8H1404L1409.33 0Z" fill="#D1D5DB"/>
<path d="M1421.33 0H1428L1422.67 8H1416L1421.33 0Z" fill="#D1D5DB"/>
<path d="M1433.33 0H1440L1434.67 8H1428L1433.33 0Z" fill="#D1D5DB"/>
<path d="M1445.33 0H1452L1446.67 8H1440L1445.33 0Z" fill="#D1D5DB"/>
<path d="M1457.33 0H1464L1458.67 8H1452L1457.33 0Z" fill="#D1D5DB"/>
<path d="M1469.33 0H1476L1470.67 8H1464L1469.33 0Z" fill="#D1D5DB"/>
<path d="M1481.33 0H1488L1482.67 8H1476L1481.33 0Z" fill="#D1D5DB"/>
<path d="M1493.33 0H1500L1494.67 8H1488L1493.33 0Z" fill="#D1D5DB"/>
<path d="M1505.33 0H1512L1506.67 8H1500L1505.33 0Z" fill="#D1D5DB"/>
<path d="M1517.33 0H1524L1518.67 8H1512L1517.33 0Z" fill="#D1D5DB"/>
<path d="M1529.33 0H1536L1530.67 8H1524L1529.33 0Z" fill="#D1D5DB"/>
<path d="M1541.33 0H1548L1542.67 8H1536L1541.33 0Z" fill="#D1D5DB"/>
<path d="M1553.33 0H1560L1554.67 8H1548L1553.33 0Z" fill="#D1D5DB"/>
<path d="M1565.33 0H1572L1566.67 8H1560L1565.33 0Z" fill="#D1D5DB"/>
<path d="M1577.33 0H1584L1578.67 8H1572L1577.33 0Z" fill="#D1D5DB"/>
<path d="M1589.33 0H1596L1590.67 8H1584L1589.33 0Z" fill="#D1D5DB"/>
<path d="M1601.33 0H1608L1602.67 8H1596L1601.33 0Z" fill="#D1D5DB"/>
</g>
<defs>
<clipPath id="clip0_139_2029">
<rect width="1600" height="8" fill="white"/>
</clipPath>
</defs>
</svg>
