<svg width="22" height="22" viewBox="0 0 22 22" fill="none" xmlns="http://www.w3.org/2000/svg">
<path d="M5.5 18.3333C5.5 15.0426 7.96244 12.375 11 12.375C14.0376 12.375 16.5 15.0426 16.5 18.3333" stroke="#475569" stroke-width="1.5" stroke-linecap="round"/>
<path d="M5.95831 16.9582C5.95831 17.4166 7.10415 17.8749 7.79165 17.4166C8.47915 16.9582 8.68984 15.8101 9.39568 16.0077C10.1015 16.2054 10.0833 17.6457 11 18.3332C11.9166 19.0207 13.5208 18.7916 14.2083 17.6457C14.8958 16.4999 14.172 16.1905 14.6947 15.4472C15.0432 14.9516 15.4879 15.0732 15.5833 15.1249" stroke="#475569" stroke-width="1.5" stroke-linecap="round"/>
<path d="M10.5417 9.625H11.4584H10.5417Z" fill="#475569"/>
<path d="M10.5417 9.625H11.4584" stroke="#475569" stroke-width="1.5" stroke-linecap="round" stroke-linejoin="round"/>
<path d="M14.7361 10.2988L15.5135 10.7846L14.7361 10.2988Z" fill="#475569"/>
<path d="M14.7361 10.2988L15.5135 10.7846" stroke="#475569" stroke-width="1.5" stroke-linecap="round" stroke-linejoin="round"/>
<path d="M6.48608 10.7846L7.26346 10.2988L6.48608 10.7846Z" fill="#475569"/>
<path d="M6.48608 10.7846L7.26346 10.2988" stroke="#475569" stroke-width="1.5" stroke-linecap="round" stroke-linejoin="round"/>
<path d="M17.9019 12.8945L18.3602 13.6884L17.9019 12.8945Z" fill="#475569"/>
<path d="M17.9019 12.8945L18.3602 13.6884" stroke="#475569" stroke-width="1.5" stroke-linecap="round" stroke-linejoin="round"/>
<path d="M3.69354 13.6884L4.15188 12.8945L3.69354 13.6884Z" fill="#475569"/>
<path d="M3.69354 13.6884L4.15188 12.8945" stroke="#475569" stroke-width="1.5" stroke-linecap="round" stroke-linejoin="round"/>
<path d="M19.2017 16.9609L19.2975 17.8726L19.2017 16.9609Z" fill="#475569"/>
<path d="M19.2017 16.9609L19.2975 17.8726" stroke="#475569" stroke-width="1.5" stroke-linecap="round" stroke-linejoin="round"/>
<path d="M2.24335 17.8726L2.33917 16.9609L2.24335 17.8726Z" fill="#475569"/>
<path d="M2.24335 17.8726L2.33917 16.9609" stroke="#475569" stroke-width="1.5" stroke-linecap="round" stroke-linejoin="round"/>
<path d="M19.2501 4.58301L4.125 8.24967L19.2501 4.58301Z" fill="#475569"/>
<path d="M19.2501 4.58301L4.125 8.24967" stroke="#475569" stroke-width="1.5" stroke-linecap="round"/>
<path d="M7.87255 1.83301L15.5833 5.49967L8.46569 7.33301L5.5 3.05523L7.87255 1.83301Z" fill="#475569" stroke="#475569" stroke-linecap="round" stroke-linejoin="round"/>
<path d="M4.125 8.25033L2.75 6.41699L4.125 8.25033Z" fill="#475569"/>
<path d="M4.125 8.25033L2.75 6.41699" stroke="#475569" stroke-width="1.5" stroke-linecap="round" stroke-linejoin="round"/>
</svg>
