<svg width="815" height="74" viewBox="0 0 815 74" fill="none" xmlns="http://www.w3.org/2000/svg">
<line x1="22" y1="32" x2="789" y2="32.0001" stroke="#E5E7EB" stroke-width="4"/>
<line x1="21" y1="32" x2="402" y2="32" stroke="#0E7490" stroke-opacity="0.35" stroke-width="4"/>
<g filter="url(#filter0_d_169_3347)">
<circle cx="22" cy="32" r="9" fill="#0E7490"/>
<circle cx="22" cy="32" r="7" stroke="white" stroke-width="4"/>
</g>
<g filter="url(#filter1_d_169_3347)">
<circle cx="788" cy="32" r="9" fill="#E5E7EB"/>
<circle cx="788" cy="32" r="7" stroke="white" stroke-width="4"/>
</g>
<g filter="url(#filter2_d_169_3347)">
<circle cx="406" cy="32" r="15.5" fill="#0E7490" stroke="white" stroke-width="3"/>
<g filter="url(#filter3_d_169_3347)">
<path d="M411.385 30.3421C412.994 30.3421 413.799 31.4474 414 32C413.799 32.5526 412.994 33.6579 411.385 33.6579L408.368 33.6579L403.2 41L401.6 41L404.8 33.4211L401.2 33.4211L398 35.7895L399.2 32L398 28.2105L401.2 30.5789L404.8 30.5789L401.6 23L403.2 23L408.368 30.3421L411.385 30.3421Z" fill="white"/>
</g>
</g>
<path d="M2.66879 59.0469V69H1.34945V59.0469H2.66879ZM6.83871 63.5244V64.6045H2.38168V63.5244H6.83871ZM7.51547 59.0469V60.127H2.38168V59.0469H7.51547ZM10.5504 58.5V69H9.27887V58.5H10.5504ZM14.2346 61.6035V69H12.9632V61.6035H14.2346ZM12.8675 59.6416C12.8675 59.4365 12.929 59.2633 13.052 59.1221C13.1796 58.9808 13.3665 58.9102 13.6126 58.9102C13.8541 58.9102 14.0387 58.9808 14.1663 59.1221C14.2985 59.2633 14.3645 59.4365 14.3645 59.6416C14.3645 59.8376 14.2985 60.0062 14.1663 60.1475C14.0387 60.2842 13.8541 60.3525 13.6126 60.3525C13.3665 60.3525 13.1796 60.2842 13.052 60.1475C12.929 60.0062 12.8675 59.8376 12.8675 59.6416ZM21.3369 61.6035H22.4854V68.8428C22.4854 69.4945 22.3532 70.0505 22.0889 70.5107C21.8245 70.971 21.4554 71.3197 20.9814 71.5566C20.512 71.7982 19.9697 71.9189 19.3545 71.9189C19.0993 71.9189 18.7985 71.8779 18.4521 71.7959C18.1104 71.7184 17.7731 71.584 17.4404 71.3926C17.1123 71.2057 16.8366 70.9528 16.6133 70.6338L17.2764 69.8818C17.5863 70.2555 17.9098 70.5153 18.2471 70.6611C18.5889 70.807 18.9261 70.8799 19.2588 70.8799C19.6598 70.8799 20.0062 70.8047 20.2979 70.6543C20.5895 70.5039 20.8151 70.2806 20.9746 69.9844C21.1387 69.6927 21.2207 69.3327 21.2207 68.9043V63.2305L21.3369 61.6035ZM16.2441 65.3838V65.2402C16.2441 64.6751 16.3102 64.1624 16.4424 63.7021C16.5791 63.2373 16.7728 62.8385 17.0234 62.5059C17.2786 62.1732 17.5863 61.918 17.9463 61.7402C18.3063 61.5579 18.7119 61.4668 19.1631 61.4668C19.6279 61.4668 20.0335 61.5488 20.3799 61.7129C20.7308 61.8724 21.027 62.1071 21.2686 62.417C21.5146 62.7223 21.7083 63.0915 21.8496 63.5244C21.9909 63.9574 22.0889 64.4473 22.1436 64.9941V65.623C22.0934 66.1654 21.9954 66.653 21.8496 67.0859C21.7083 67.5189 21.5146 67.888 21.2686 68.1934C21.027 68.4987 20.7308 68.7334 20.3799 68.8975C20.029 69.057 19.6188 69.1367 19.1494 69.1367C18.7074 69.1367 18.3063 69.0433 17.9463 68.8564C17.5908 68.6696 17.2855 68.4076 17.0303 68.0703C16.7751 67.7331 16.5791 67.3366 16.4424 66.8809C16.3102 66.4206 16.2441 65.9215 16.2441 65.3838ZM17.5088 65.2402V65.3838C17.5088 65.7529 17.5452 66.0993 17.6182 66.4229C17.6956 66.7464 17.8118 67.0312 17.9668 67.2773C18.1263 67.5234 18.3291 67.7171 18.5752 67.8584C18.8213 67.9951 19.1152 68.0635 19.457 68.0635C19.8763 68.0635 20.2227 67.9746 20.4961 67.7969C20.7695 67.6191 20.986 67.3844 21.1455 67.0928C21.3096 66.8011 21.4372 66.4844 21.5283 66.1426V64.4951C21.4782 64.2445 21.4007 64.0029 21.2959 63.7705C21.1956 63.5335 21.0635 63.3239 20.8994 63.1416C20.7399 62.9548 20.5417 62.8066 20.3047 62.6973C20.0677 62.5879 19.7897 62.5332 19.4707 62.5332C19.1243 62.5332 18.8258 62.6061 18.5752 62.752C18.3291 62.8932 18.1263 63.0892 17.9668 63.3398C17.8118 63.5859 17.6956 63.873 17.6182 64.2012C17.5452 64.5247 17.5088 64.8711 17.5088 65.2402ZM25.9509 58.5V69H24.6863V58.5H25.9509ZM25.6501 65.0215L25.1238 65.001C25.1283 64.4951 25.2035 64.028 25.3493 63.5996C25.4952 63.1667 25.7002 62.7907 25.9646 62.4717C26.2289 62.1527 26.5433 61.9066 26.9079 61.7334C27.2771 61.5557 27.6849 61.4668 28.1316 61.4668C28.4961 61.4668 28.8243 61.5169 29.1159 61.6172C29.4076 61.7129 29.656 61.8678 29.8611 62.082C30.0707 62.2962 30.2302 62.5742 30.3396 62.916C30.4489 63.2533 30.5036 63.6657 30.5036 64.1533V69H29.2321V64.1396C29.2321 63.7523 29.1752 63.4424 29.0613 63.21C28.9473 62.973 28.781 62.8021 28.5622 62.6973C28.3435 62.5879 28.0746 62.5332 27.7556 62.5332C27.4411 62.5332 27.154 62.5993 26.8943 62.7314C26.6391 62.8636 26.418 63.0459 26.2312 63.2783C26.0489 63.5107 25.9053 63.7773 25.8005 64.0781C25.7002 64.3743 25.6501 64.6888 25.6501 65.0215ZM35.7739 61.6035V62.5742H31.7748V61.6035H35.7739ZM33.1284 59.8057H34.393V67.168C34.393 67.4186 34.4317 67.6077 34.5092 67.7354C34.5867 67.863 34.687 67.9473 34.81 67.9883C34.933 68.0293 35.0652 68.0498 35.2065 68.0498C35.3113 68.0498 35.4207 68.0407 35.5346 68.0225C35.6531 67.9997 35.742 67.9814 35.8012 67.9678L35.808 69C35.7078 69.0319 35.5756 69.0615 35.4116 69.0889C35.2521 69.1208 35.0584 69.1367 34.8305 69.1367C34.5206 69.1367 34.2358 69.0752 33.976 68.9521C33.7162 68.8291 33.5089 68.624 33.3539 68.3369C33.2036 68.0452 33.1284 67.6533 33.1284 67.1611V59.8057ZM41.8439 67.0381C41.8439 66.8558 41.8029 66.6872 41.7209 66.5322C41.6434 66.3727 41.4816 66.2292 41.2355 66.1016C40.994 65.9694 40.6294 65.8555 40.1418 65.7598C39.7316 65.6732 39.3602 65.5706 39.0275 65.4521C38.6994 65.3337 38.4191 65.1901 38.1867 65.0215C37.9588 64.8529 37.7834 64.6546 37.6603 64.4268C37.5373 64.1989 37.4757 63.9323 37.4757 63.627C37.4757 63.3353 37.5395 63.0596 37.6671 62.7998C37.7993 62.54 37.9839 62.3099 38.2209 62.1094C38.4624 61.9089 38.7518 61.7516 39.089 61.6377C39.4263 61.5238 39.8022 61.4668 40.217 61.4668C40.8094 61.4668 41.3153 61.5716 41.7345 61.7812C42.1538 61.9909 42.4751 62.2712 42.6984 62.6221C42.9217 62.9684 43.0334 63.3535 43.0334 63.7773H41.7687C41.7687 63.5723 41.7072 63.374 41.5841 63.1826C41.4657 62.9867 41.2902 62.8249 41.0578 62.6973C40.8299 62.5697 40.5496 62.5059 40.217 62.5059C39.866 62.5059 39.5812 62.5605 39.3625 62.6699C39.1483 62.7747 38.991 62.9092 38.8908 63.0732C38.7951 63.2373 38.7472 63.4105 38.7472 63.5928C38.7472 63.7295 38.77 63.8525 38.8156 63.9619C38.8657 64.0667 38.9523 64.1647 39.0754 64.2559C39.1984 64.3424 39.3716 64.4245 39.5949 64.502C39.8182 64.5794 40.103 64.6569 40.4494 64.7344C41.0555 64.8711 41.5545 65.0352 41.9464 65.2266C42.3384 65.418 42.63 65.6527 42.8214 65.9307C43.0129 66.2087 43.1086 66.5459 43.1086 66.9424C43.1086 67.266 43.0402 67.5622 42.9035 67.8311C42.7713 68.0999 42.5776 68.3324 42.3224 68.5283C42.0718 68.7197 41.771 68.8701 41.4201 68.9795C41.0737 69.0843 40.6841 69.1367 40.2511 69.1367C39.5994 69.1367 39.048 69.0205 38.5968 68.7881C38.1457 68.5557 37.8039 68.2549 37.5714 67.8857C37.339 67.5166 37.2228 67.127 37.2228 66.7168H38.4943C38.5125 67.0632 38.6128 67.3389 38.7951 67.5439C38.9774 67.7445 39.2007 67.888 39.465 67.9746C39.7293 68.0566 39.9914 68.0977 40.2511 68.0977C40.5975 68.0977 40.8869 68.0521 41.1193 67.9609C41.3563 67.8698 41.5363 67.7445 41.6593 67.585C41.7824 67.4255 41.8439 67.2432 41.8439 67.0381Z" fill="#111827"/>
<path d="M387.085 69H385.007L385.02 67.9268H387.085C387.796 67.9268 388.388 67.7786 388.862 67.4824C389.336 67.1816 389.692 66.7624 389.929 66.2246C390.17 65.6823 390.291 65.0488 390.291 64.3242V63.7158C390.291 63.1462 390.222 62.6403 390.086 62.1982C389.949 61.7516 389.749 61.3757 389.484 61.0703C389.22 60.7604 388.896 60.5257 388.514 60.3662C388.135 60.2067 387.7 60.127 387.208 60.127H384.966V59.0469H387.208C387.86 59.0469 388.454 59.1562 388.992 59.375C389.53 59.5892 389.992 59.9014 390.38 60.3115C390.772 60.7171 391.072 61.2093 391.282 61.7881C391.492 62.3623 391.597 63.0094 391.597 63.7295V64.3242C391.597 65.0443 391.492 65.6937 391.282 66.2725C391.072 66.8467 390.769 67.3366 390.373 67.7422C389.981 68.1478 389.507 68.46 388.951 68.6787C388.4 68.8929 387.778 69 387.085 69ZM385.711 59.0469V69H384.391V59.0469H385.711ZM396.737 69.1367C396.222 69.1367 395.755 69.0501 395.336 68.877C394.921 68.6992 394.563 68.4508 394.262 68.1318C393.966 67.8128 393.738 67.4346 393.579 66.9971C393.419 66.5596 393.339 66.0811 393.339 65.5615V65.2744C393.339 64.6729 393.428 64.1374 393.606 63.668C393.784 63.194 394.025 62.793 394.331 62.4648C394.636 62.1367 394.982 61.8883 395.37 61.7197C395.757 61.5511 396.158 61.4668 396.573 61.4668C397.101 61.4668 397.557 61.5579 397.94 61.7402C398.327 61.9225 398.644 62.1777 398.89 62.5059C399.136 62.8294 399.319 63.2122 399.437 63.6543C399.556 64.0918 399.615 64.5703 399.615 65.0898V65.6572H394.091V64.625H398.35V64.5293C398.332 64.2012 398.264 63.8822 398.145 63.5723C398.031 63.2624 397.849 63.0072 397.598 62.8066C397.348 62.6061 397.006 62.5059 396.573 62.5059C396.286 62.5059 396.021 62.5674 395.78 62.6904C395.538 62.8089 395.331 62.9867 395.158 63.2236C394.985 63.4606 394.85 63.75 394.754 64.0918C394.659 64.4336 394.611 64.8278 394.611 65.2744V65.5615C394.611 65.9124 394.659 66.2428 394.754 66.5527C394.855 66.8581 394.998 67.127 395.185 67.3594C395.377 67.5918 395.607 67.7741 395.876 67.9062C396.149 68.0384 396.459 68.1045 396.805 68.1045C397.252 68.1045 397.63 68.0133 397.94 67.8311C398.25 67.6488 398.521 67.4049 398.753 67.0996L399.519 67.708C399.36 67.9495 399.157 68.1797 398.911 68.3984C398.665 68.6172 398.362 68.7949 398.002 68.9316C397.646 69.0684 397.225 69.1367 396.737 69.1367ZM404.468 61.6035V62.5742H400.469V61.6035H404.468ZM401.823 59.8057H403.087V67.168C403.087 67.4186 403.126 67.6077 403.203 67.7354C403.281 67.863 403.381 67.9473 403.504 67.9883C403.627 68.0293 403.759 68.0498 403.901 68.0498C404.005 68.0498 404.115 68.0407 404.229 68.0225C404.347 67.9997 404.436 67.9814 404.495 67.9678L404.502 69C404.402 69.0319 404.27 69.0615 404.106 69.0889C403.946 69.1208 403.753 69.1367 403.525 69.1367C403.215 69.1367 402.93 69.0752 402.67 68.9521C402.41 68.8291 402.203 68.624 402.048 68.3369C401.898 68.0452 401.823 67.6533 401.823 67.1611V59.8057ZM410.593 67.7354V63.9277C410.593 63.6361 410.534 63.3831 410.415 63.1689C410.301 62.9502 410.128 62.7816 409.896 62.6631C409.663 62.5446 409.376 62.4854 409.034 62.4854C408.715 62.4854 408.435 62.54 408.193 62.6494C407.956 62.7588 407.77 62.9023 407.633 63.0801C407.501 63.2578 407.435 63.4492 407.435 63.6543H406.17C406.17 63.39 406.238 63.1279 406.375 62.8682C406.512 62.6084 406.708 62.3737 406.963 62.1641C407.223 61.9499 407.533 61.7812 407.893 61.6582C408.257 61.5306 408.663 61.4668 409.109 61.4668C409.647 61.4668 410.121 61.5579 410.531 61.7402C410.946 61.9225 411.27 62.1982 411.502 62.5674C411.739 62.932 411.857 63.39 411.857 63.9414V67.3867C411.857 67.6328 411.878 67.8949 411.919 68.1729C411.965 68.4508 412.031 68.6901 412.117 68.8906V69H410.798C410.734 68.8542 410.684 68.6605 410.647 68.4189C410.611 68.1729 410.593 67.945 410.593 67.7354ZM410.812 64.5156L410.825 65.4043H409.547C409.187 65.4043 408.866 65.4339 408.583 65.4932C408.3 65.5479 408.063 65.6322 407.872 65.7461C407.681 65.86 407.535 66.0036 407.435 66.1768C407.334 66.3454 407.284 66.5436 407.284 66.7715C407.284 67.0039 407.337 67.2158 407.441 67.4072C407.546 67.5986 407.703 67.7513 407.913 67.8652C408.127 67.9746 408.389 68.0293 408.699 68.0293C409.087 68.0293 409.428 67.9473 409.725 67.7832C410.021 67.6191 410.256 67.4186 410.429 67.1816C410.606 66.9447 410.702 66.7145 410.716 66.4912L411.256 67.0996C411.224 67.291 411.137 67.5029 410.996 67.7354C410.855 67.9678 410.666 68.1911 410.429 68.4053C410.196 68.6149 409.918 68.7904 409.595 68.9316C409.276 69.0684 408.916 69.1367 408.515 69.1367C408.013 69.1367 407.574 69.0387 407.195 68.8428C406.822 68.6468 406.53 68.3848 406.32 68.0566C406.115 67.724 406.013 67.3525 406.013 66.9424C406.013 66.5459 406.09 66.1973 406.245 65.8965C406.4 65.5911 406.623 65.3382 406.915 65.1377C407.207 64.9326 407.558 64.7777 407.968 64.6729C408.378 64.568 408.836 64.5156 409.342 64.5156H410.812ZM415.501 61.6035V69H414.229V61.6035H415.501ZM414.134 59.6416C414.134 59.4365 414.195 59.2633 414.318 59.1221C414.446 58.9808 414.633 58.9102 414.879 58.9102C415.12 58.9102 415.305 58.9808 415.432 59.1221C415.565 59.2633 415.631 59.4365 415.631 59.6416C415.631 59.8376 415.565 60.0062 415.432 60.1475C415.305 60.2842 415.12 60.3525 414.879 60.3525C414.633 60.3525 414.446 60.2842 414.318 60.1475C414.195 60.0062 414.134 59.8376 414.134 59.6416ZM419.185 58.5V69H417.914V58.5H419.185ZM425.802 67.0381C425.802 66.8558 425.761 66.6872 425.679 66.5322C425.601 66.3727 425.44 66.2292 425.194 66.1016C424.952 65.9694 424.587 65.8555 424.1 65.7598C423.69 65.6732 423.318 65.5706 422.986 65.4521C422.657 65.3337 422.377 65.1901 422.145 65.0215C421.917 64.8529 421.741 64.6546 421.618 64.4268C421.495 64.1989 421.434 63.9323 421.434 63.627C421.434 63.3353 421.498 63.0596 421.625 62.7998C421.757 62.54 421.942 62.3099 422.179 62.1094C422.42 61.9089 422.71 61.7516 423.047 61.6377C423.384 61.5238 423.76 61.4668 424.175 61.4668C424.767 61.4668 425.273 61.5716 425.693 61.7812C426.112 61.9909 426.433 62.2712 426.656 62.6221C426.88 62.9684 426.991 63.3535 426.991 63.7773H425.727C425.727 63.5723 425.665 63.374 425.542 63.1826C425.424 62.9867 425.248 62.8249 425.016 62.6973C424.788 62.5697 424.508 62.5059 424.175 62.5059C423.824 62.5059 423.539 62.5605 423.32 62.6699C423.106 62.7747 422.949 62.9092 422.849 63.0732C422.753 63.2373 422.705 63.4105 422.705 63.5928C422.705 63.7295 422.728 63.8525 422.774 63.9619C422.824 64.0667 422.91 64.1647 423.033 64.2559C423.156 64.3424 423.33 64.4245 423.553 64.502C423.776 64.5794 424.061 64.6569 424.407 64.7344C425.014 64.8711 425.513 65.0352 425.904 65.2266C426.296 65.418 426.588 65.6527 426.779 65.9307C426.971 66.2087 427.067 66.5459 427.067 66.9424C427.067 67.266 426.998 67.5622 426.861 67.8311C426.729 68.0999 426.536 68.3324 426.28 68.5283C426.03 68.7197 425.729 68.8701 425.378 68.9795C425.032 69.0843 424.642 69.1367 424.209 69.1367C423.557 69.1367 423.006 69.0205 422.555 68.7881C422.104 68.5557 421.762 68.2549 421.529 67.8857C421.297 67.5166 421.181 67.127 421.181 66.7168H422.452C422.471 67.0632 422.571 67.3389 422.753 67.5439C422.935 67.7445 423.159 67.888 423.423 67.9746C423.687 68.0566 423.949 68.0977 424.209 68.0977C424.555 68.0977 424.845 68.0521 425.077 67.9609C425.314 67.8698 425.494 67.7445 425.617 67.585C425.74 67.4255 425.802 67.2432 425.802 67.0381Z" fill="#111827"/>
<path d="M770.65 65.835H771.962C771.894 66.4639 771.714 67.0267 771.422 67.5234C771.13 68.0202 770.718 68.4144 770.185 68.7061C769.652 68.9932 768.986 69.1367 768.189 69.1367C767.605 69.1367 767.074 69.0273 766.596 68.8086C766.122 68.5898 765.714 68.2799 765.372 67.8789C765.03 67.4733 764.766 66.988 764.579 66.4229C764.397 65.8532 764.306 65.2197 764.306 64.5225V63.5312C764.306 62.834 764.397 62.2028 764.579 61.6377C764.766 61.068 765.033 60.5804 765.379 60.1748C765.73 59.7692 766.152 59.457 766.644 59.2383C767.136 59.0195 767.69 58.9102 768.305 58.9102C769.057 58.9102 769.693 59.0514 770.212 59.334C770.732 59.6165 771.135 60.0085 771.422 60.5098C771.714 61.0065 771.894 61.583 771.962 62.2393H770.65C770.586 61.7744 770.467 61.3757 770.294 61.043C770.121 60.7057 769.875 60.446 769.556 60.2637C769.237 60.0814 768.82 59.9902 768.305 59.9902C767.863 59.9902 767.473 60.0745 767.136 60.2432C766.803 60.4118 766.523 60.651 766.295 60.9609C766.072 61.2708 765.903 61.6423 765.789 62.0752C765.675 62.5081 765.618 62.9889 765.618 63.5176V64.5225C765.618 65.0101 765.668 65.4681 765.769 65.8965C765.874 66.3249 766.031 66.7008 766.24 67.0244C766.45 67.348 766.717 67.6032 767.04 67.79C767.364 67.9723 767.747 68.0635 768.189 68.0635C768.749 68.0635 769.196 67.9746 769.529 67.7969C769.861 67.6191 770.112 67.3639 770.28 67.0312C770.454 66.6986 770.577 66.2998 770.65 65.835ZM773.514 65.3838V65.2266C773.514 64.6934 773.591 64.1989 773.746 63.7432C773.901 63.2829 774.124 62.8841 774.416 62.5469C774.708 62.2051 775.061 61.9408 775.476 61.7539C775.89 61.5625 776.355 61.4668 776.87 61.4668C777.39 61.4668 777.857 61.5625 778.271 61.7539C778.691 61.9408 779.046 62.2051 779.338 62.5469C779.634 62.8841 779.86 63.2829 780.015 63.7432C780.17 64.1989 780.247 64.6934 780.247 65.2266V65.3838C780.247 65.917 780.17 66.4115 780.015 66.8672C779.86 67.3229 779.634 67.7217 779.338 68.0635C779.046 68.4007 778.693 68.665 778.278 68.8564C777.868 69.0433 777.403 69.1367 776.884 69.1367C776.364 69.1367 775.897 69.0433 775.482 68.8564C775.068 68.665 774.712 68.4007 774.416 68.0635C774.124 67.7217 773.901 67.3229 773.746 66.8672C773.591 66.4115 773.514 65.917 773.514 65.3838ZM774.778 65.2266V65.3838C774.778 65.7529 774.822 66.1016 774.908 66.4297C774.995 66.7533 775.125 67.0404 775.298 67.291C775.476 67.5417 775.697 67.7399 775.961 67.8857C776.225 68.027 776.533 68.0977 776.884 68.0977C777.23 68.0977 777.533 68.027 777.793 67.8857C778.057 67.7399 778.276 67.5417 778.449 67.291C778.622 67.0404 778.752 66.7533 778.839 66.4297C778.93 66.1016 778.976 65.7529 778.976 65.3838V65.2266C778.976 64.862 778.93 64.5179 778.839 64.1943C778.752 63.8662 778.62 63.5768 778.442 63.3262C778.269 63.071 778.05 62.8704 777.786 62.7246C777.526 62.5788 777.221 62.5059 776.87 62.5059C776.524 62.5059 776.218 62.5788 775.954 62.7246C775.694 62.8704 775.476 63.071 775.298 63.3262C775.125 63.5768 774.995 63.8662 774.908 64.1943C774.822 64.5179 774.778 64.862 774.778 65.2266ZM783.378 63.1826V69H782.113V61.6035H783.309L783.378 63.1826ZM783.077 65.0215L782.55 65.001C782.555 64.4951 782.63 64.028 782.776 63.5996C782.922 63.1667 783.127 62.7907 783.391 62.4717C783.656 62.1527 783.97 61.9066 784.335 61.7334C784.704 61.5557 785.112 61.4668 785.558 61.4668C785.923 61.4668 786.251 61.5169 786.543 61.6172C786.834 61.7129 787.083 61.8678 787.288 62.082C787.497 62.2962 787.657 62.5742 787.766 62.916C787.876 63.2533 787.93 63.6657 787.93 64.1533V69H786.659V64.1396C786.659 63.7523 786.602 63.4424 786.488 63.21C786.374 62.973 786.208 62.8021 785.989 62.6973C785.77 62.5879 785.501 62.5332 785.182 62.5332C784.868 62.5332 784.581 62.5993 784.321 62.7314C784.066 62.8636 783.845 63.0459 783.658 63.2783C783.476 63.5107 783.332 63.7773 783.227 64.0781C783.127 64.3743 783.077 64.6888 783.077 65.0215ZM791.82 69H790.555V60.9609C790.555 60.4004 790.664 59.9264 790.883 59.5391C791.102 59.1517 791.414 58.8577 791.82 58.6572C792.225 58.4567 792.706 58.3564 793.262 58.3564C793.59 58.3564 793.911 58.3975 794.226 58.4795C794.54 58.557 794.864 58.6549 795.197 58.7734L794.985 59.8398C794.775 59.7578 794.531 59.6803 794.253 59.6074C793.98 59.5299 793.679 59.4912 793.351 59.4912C792.809 59.4912 792.417 59.6143 792.175 59.8604C791.938 60.1019 791.82 60.4688 791.82 60.9609V69ZM793.33 61.6035V62.5742H789.386V61.6035H793.33ZM795.819 61.6035V69H794.554V61.6035H795.819ZM799.441 62.7656V69H798.177V61.6035H799.407L799.441 62.7656ZM801.752 61.5625L801.745 62.7383C801.64 62.7155 801.54 62.7018 801.444 62.6973C801.353 62.6882 801.248 62.6836 801.13 62.6836C800.838 62.6836 800.581 62.7292 800.357 62.8203C800.134 62.9115 799.945 63.0391 799.79 63.2031C799.635 63.3672 799.512 63.5632 799.421 63.791C799.334 64.0143 799.277 64.2604 799.25 64.5293L798.895 64.7344C798.895 64.2878 798.938 63.8685 799.024 63.4766C799.116 63.0846 799.255 62.7383 799.441 62.4375C799.628 62.1322 799.865 61.8952 800.152 61.7266C800.444 61.5534 800.79 61.4668 801.191 61.4668C801.283 61.4668 801.387 61.4782 801.506 61.501C801.624 61.5192 801.706 61.5397 801.752 61.5625ZM804.459 63.0732V69H803.187V61.6035H804.39L804.459 63.0732ZM804.199 65.0215L803.611 65.001C803.616 64.4951 803.682 64.028 803.809 63.5996C803.937 63.1667 804.126 62.7907 804.377 62.4717C804.627 62.1527 804.94 61.9066 805.313 61.7334C805.687 61.5557 806.12 61.4668 806.612 61.4668C806.958 61.4668 807.277 61.5169 807.569 61.6172C807.861 61.7129 808.114 61.8656 808.328 62.0752C808.542 62.2848 808.708 62.5537 808.827 62.8818C808.945 63.21 809.005 63.6064 809.005 64.0713V69H807.74V64.1328C807.74 63.7454 807.674 63.4355 807.542 63.2031C807.414 62.9707 807.232 62.8021 806.995 62.6973C806.758 62.5879 806.48 62.5332 806.161 62.5332C805.787 62.5332 805.475 62.5993 805.224 62.7314C804.974 62.8636 804.773 63.0459 804.623 63.2783C804.472 63.5107 804.363 63.7773 804.295 64.0781C804.231 64.3743 804.199 64.6888 804.199 65.0215ZM808.991 64.3242L808.143 64.584C808.148 64.1784 808.214 63.7887 808.342 63.415C808.474 63.0413 808.663 62.7087 808.909 62.417C809.16 62.1253 809.467 61.8952 809.832 61.7266C810.196 61.5534 810.613 61.4668 811.083 61.4668C811.479 61.4668 811.83 61.5192 812.136 61.624C812.445 61.7288 812.705 61.8906 812.915 62.1094C813.129 62.3236 813.291 62.5993 813.4 62.9365C813.51 63.2738 813.564 63.6748 813.564 64.1396V69H812.293V64.126C812.293 63.7113 812.227 63.39 812.095 63.1621C811.967 62.9297 811.785 62.7679 811.548 62.6768C811.315 62.5811 811.037 62.5332 810.714 62.5332C810.436 62.5332 810.19 62.5811 809.975 62.6768C809.761 62.7725 809.581 62.9046 809.435 63.0732C809.29 63.2373 809.178 63.4264 809.1 63.6406C809.027 63.8548 808.991 64.0827 808.991 64.3242Z" fill="#111827"/>
<defs>
<filter id="filter0_d_169_3347" x="1" y="11" width="42" height="42" filterUnits="userSpaceOnUse" color-interpolation-filters="sRGB">
<feFlood flood-opacity="0" result="BackgroundImageFix"/>
<feColorMatrix in="SourceAlpha" type="matrix" values="0 0 0 0 0 0 0 0 0 0 0 0 0 0 0 0 0 0 127 0" result="hardAlpha"/>
<feOffset/>
<feGaussianBlur stdDeviation="6"/>
<feComposite in2="hardAlpha" operator="out"/>
<feColorMatrix type="matrix" values="0 0 0 0 0 0 0 0 0 0 0 0 0 0 0 0 0 0 0.15 0"/>
<feBlend mode="normal" in2="BackgroundImageFix" result="effect1_dropShadow_169_3347"/>
<feBlend mode="normal" in="SourceGraphic" in2="effect1_dropShadow_169_3347" result="shape"/>
</filter>
<filter id="filter1_d_169_3347" x="767" y="11" width="42" height="42" filterUnits="userSpaceOnUse" color-interpolation-filters="sRGB">
<feFlood flood-opacity="0" result="BackgroundImageFix"/>
<feColorMatrix in="SourceAlpha" type="matrix" values="0 0 0 0 0 0 0 0 0 0 0 0 0 0 0 0 0 0 127 0" result="hardAlpha"/>
<feOffset/>
<feGaussianBlur stdDeviation="6"/>
<feComposite in2="hardAlpha" operator="out"/>
<feColorMatrix type="matrix" values="0 0 0 0 0 0 0 0 0 0 0 0 0 0 0 0 0 0 0.15 0"/>
<feBlend mode="normal" in2="BackgroundImageFix" result="effect1_dropShadow_169_3347"/>
<feBlend mode="normal" in="SourceGraphic" in2="effect1_dropShadow_169_3347" result="shape"/>
</filter>
<filter id="filter2_d_169_3347" x="374" y="0" width="64" height="64" filterUnits="userSpaceOnUse" color-interpolation-filters="sRGB">
<feFlood flood-opacity="0" result="BackgroundImageFix"/>
<feColorMatrix in="SourceAlpha" type="matrix" values="0 0 0 0 0 0 0 0 0 0 0 0 0 0 0 0 0 0 127 0" result="hardAlpha"/>
<feOffset/>
<feGaussianBlur stdDeviation="7.5"/>
<feComposite in2="hardAlpha" operator="out"/>
<feColorMatrix type="matrix" values="0 0 0 0 0 0 0 0 0 0 0 0 0 0 0 0 0 0 0.15 0"/>
<feBlend mode="normal" in2="BackgroundImageFix" result="effect1_dropShadow_169_3347"/>
<feBlend mode="normal" in="SourceGraphic" in2="effect1_dropShadow_169_3347" result="shape"/>
</filter>
<filter id="filter3_d_169_3347" x="386" y="11" width="40" height="42" filterUnits="userSpaceOnUse" color-interpolation-filters="sRGB">
<feFlood flood-opacity="0" result="BackgroundImageFix"/>
<feColorMatrix in="SourceAlpha" type="matrix" values="0 0 0 0 0 0 0 0 0 0 0 0 0 0 0 0 0 0 127 0" result="hardAlpha"/>
<feOffset/>
<feGaussianBlur stdDeviation="6"/>
<feComposite in2="hardAlpha" operator="out"/>
<feColorMatrix type="matrix" values="0 0 0 0 0 0 0 0 0 0 0 0 0 0 0 0 0 0 0.15 0"/>
<feBlend mode="normal" in2="BackgroundImageFix" result="effect1_dropShadow_169_3347"/>
<feBlend mode="normal" in="SourceGraphic" in2="effect1_dropShadow_169_3347" result="shape"/>
</filter>
</defs>
</svg>
