<svg width="18" height="18" viewBox="0 0 18 18" fill="none" xmlns="http://www.w3.org/2000/svg">
<path d="M12.1731 3.28409C12.8463 3.28409 13.492 3.55153 13.968 4.02759C14.4441 4.50364 14.7115 5.14931 14.7115 5.82255M17.25 5.82255C17.2501 6.56303 17.0882 7.29457 16.7757 7.96588C16.4632 8.63719 16.0077 9.23202 15.441 9.70865C14.8743 10.1853 14.2102 10.5322 13.4953 10.725C12.7804 10.9179 12.0319 10.952 11.3024 10.825C10.826 10.7429 10.3217 10.847 9.97985 11.1889L7.73077 13.4379H5.82692V15.3418H3.92308V17.2456H0.75V14.8612C0.75 14.356 0.950538 13.8712 1.30762 13.5149L6.80677 8.01578C7.14862 7.67393 7.25269 7.16963 7.17062 6.69324C7.05063 6.00038 7.07588 5.29015 7.24476 4.60756C7.41365 3.92497 7.72249 3.28491 8.15171 2.72793C8.58093 2.17096 9.12117 1.70922 9.7382 1.37198C10.3552 1.03474 11.0356 0.829354 11.7361 0.768837C12.4367 0.70832 13.1422 0.793992 13.8079 1.02042C14.4736 1.24686 15.0851 1.60911 15.6034 2.08423C16.1218 2.55934 16.5358 3.13696 16.8193 3.78048C17.1027 4.424 17.2494 5.11938 17.25 5.82255V5.82255Z" stroke="#475569" stroke-linecap="round" stroke-linejoin="round"/>
</svg>
