<svg xmlns="http://www.w3.org/2000/svg" width="24" height="24" viewBox="0 0 24 24">
  <g id="Notification" transform="translate(-1599 -73)">
    <rect id="Rectangle_760" data-name="Rectangle 760" width="24" height="24" transform="translate(1599 73)" fill="#fff" opacity="0"/>
    <path id="Icon_ionic-md-notifications-outline" data-name="Icon ionic-md-notifications-outline" d="M12.047,5.647a6.776,6.776,0,0,1,1.121.21,4.777,4.777,0,0,1,3.641,4.68v5.982l.437.439.365.367H6.389l.365-.367.437-.439V10.538a4.777,4.777,0,0,1,3.641-4.68,8.3,8.3,0,0,1,1.121-.21M12,2.25a1.433,1.433,0,0,0-1.456,1.463v.682a6.319,6.319,0,0,0-4.853,6.143V15.9L3.75,17.85v.975h16.5V17.85L18.309,15.9V10.538a6.32,6.32,0,0,0-4.853-6.143V3.713A1.433,1.433,0,0,0,12,2.25ZM13.941,19.8H10.059a1.941,1.941,0,1,0,3.882,0Z" transform="translate(1599 73)"/>
  </g>
</svg>
