<svg width="20" height="20" viewBox="0 0 20 20" fill="none" xmlns="http://www.w3.org/2000/svg">
<path d="M0.833252 4.49992H19.1666V8.16658L18.5256 8.55117C17.5096 9.1608 16.2403 9.1608 15.2242 8.55117L14.5833 8.16658L13.9423 8.55117C12.9262 9.1608 11.6569 9.1608 10.6409 8.55117L9.99992 8.16658L9.35894 8.55117C8.34291 9.1608 7.0736 9.1608 6.05756 8.55117L5.41658 8.16658L4.77561 8.55117C3.75957 9.1608 2.49027 9.1608 1.47424 8.55117L0.833252 8.16658V4.49992Z" fill="#475569"/>
<path d="M12.2916 13.6666H7.70825V19.1666H12.2916V13.6666Z" fill="#475569"/>
<path d="M2.66659 9.30733V19.1666H17.3333V9.08325M2.66659 4.41843V0.833252H17.3333V4.49992M0.833252 4.49992H19.1666V8.16658L18.5256 8.55117C17.5096 9.1608 16.2403 9.1608 15.2242 8.55117L14.5833 8.16658L13.9423 8.55117C12.9262 9.1608 11.6569 9.1608 10.6409 8.55117L9.99992 8.16658L9.35894 8.55117C8.34291 9.1608 7.0736 9.1608 6.05756 8.55117L5.41659 8.16658L4.77561 8.55117C3.75957 9.1608 2.49027 9.1608 1.47424 8.55117L0.833252 8.16658V4.49992ZM7.70825 13.6666H12.2916V19.1666H7.70825V13.6666Z" stroke="#475569" stroke-linecap="round" stroke-linejoin="round"/>
</svg>
