<svg width="22" height="22" viewBox="0 0 22 22" fill="none" xmlns="http://www.w3.org/2000/svg">
<g clip-path="url(#clip0_455_2301)">
<path d="M20.1667 7.33333V4.125C20.1667 3.36561 19.4578 2.75 18.5833 2.75H4.33333C3.45888 2.75 2.75 3.36561 2.75 4.125V17.875C2.75 18.6344 3.45888 19.25 4.33333 19.25H18.5833C19.4578 19.25 20.1667 18.6344 20.1667 17.875V14.6667" stroke="#475569" stroke-width="2" stroke-linejoin="round"/>
<mask id="path-2-outside-1_455_2301" maskUnits="userSpaceOnUse" x="10.9167" y="6.33301" width="12" height="10" fill="black">
<rect fill="white" x="10.9167" y="6.33301" width="12" height="10"/>
<path fill-rule="evenodd" clip-rule="evenodd" d="M13.2917 7.33301H19.7084C20.4677 7.33301 21.0834 7.94862 21.0834 8.70801V13.2913C21.0834 14.0507 20.4677 14.6663 19.7084 14.6663H13.2917C12.5323 14.6663 11.9167 14.0507 11.9167 13.2913V8.70801C11.9167 7.94862 12.5323 7.33301 13.2917 7.33301ZM15.125 9.16634C13.8594 9.16634 12.8334 10.1924 12.8334 11.458C12.8334 12.7237 13.8594 13.7497 15.125 13.7497C16.3907 13.7497 17.4167 12.7237 17.4167 11.458C17.4167 10.1924 16.3907 9.16634 15.125 9.16634Z"/>
</mask>
<path fill-rule="evenodd" clip-rule="evenodd" d="M13.2917 7.33301H19.7084C20.4677 7.33301 21.0834 7.94862 21.0834 8.70801V13.2913C21.0834 14.0507 20.4677 14.6663 19.7084 14.6663H13.2917C12.5323 14.6663 11.9167 14.0507 11.9167 13.2913V8.70801C11.9167 7.94862 12.5323 7.33301 13.2917 7.33301ZM15.125 9.16634C13.8594 9.16634 12.8334 10.1924 12.8334 11.458C12.8334 12.7237 13.8594 13.7497 15.125 13.7497C16.3907 13.7497 17.4167 12.7237 17.4167 11.458C17.4167 10.1924 16.3907 9.16634 15.125 9.16634Z" fill="#475569"/>
<path d="M12.8334 11.458H11.8334H12.8334ZM15.125 9.16634V10.1663L15.125 10.1663L15.125 9.16634ZM15.125 13.7497V14.7497H15.125L15.125 13.7497ZM17.4167 11.458H16.4167H17.4167ZM19.7084 6.33301H13.2917V8.33301H19.7084V6.33301ZM22.0834 8.70801C22.0834 7.39633 21.02 6.33301 19.7084 6.33301V8.33301C19.9155 8.33301 20.0834 8.5009 20.0834 8.70801H22.0834ZM22.0834 13.2913V8.70801H20.0834V13.2913H22.0834ZM19.7084 15.6663C21.02 15.6663 22.0834 14.603 22.0834 13.2913H20.0834C20.0834 13.4984 19.9155 13.6663 19.7084 13.6663V15.6663ZM13.2917 15.6663H19.7084V13.6663H13.2917V15.6663ZM10.9167 13.2913C10.9167 14.603 11.98 15.6663 13.2917 15.6663V13.6663C13.0846 13.6663 12.9167 13.4984 12.9167 13.2913H10.9167ZM10.9167 8.70801V13.2913H12.9167V8.70801H10.9167ZM13.2917 6.33301C11.98 6.33301 10.9167 7.39633 10.9167 8.70801H12.9167C12.9167 8.5009 13.0846 8.33301 13.2917 8.33301V6.33301ZM13.8334 11.458C13.8334 10.7446 14.4117 10.1663 15.125 10.1663V8.16634C13.3071 8.16634 11.8334 9.64007 11.8334 11.458H13.8334ZM15.125 12.7497C14.4117 12.7497 13.8334 12.1714 13.8334 11.458H11.8334C11.8334 13.2759 13.3071 14.7497 15.125 14.7497V12.7497ZM16.4167 11.458C16.4167 12.1714 15.8384 12.7497 15.125 12.7497L15.125 14.7497C16.943 14.7497 18.4167 13.2759 18.4167 11.458L16.4167 11.458ZM15.125 10.1663C15.8384 10.1663 16.4167 10.7446 16.4167 11.458H18.4167C18.4167 9.64007 16.943 8.16634 15.125 8.16634L15.125 10.1663Z" fill="#475569" mask="url(#path-2-outside-1_455_2301)"/>
</g>
<defs>
<clipPath id="clip0_455_2301">
<rect width="22" height="22" fill="white"/>
</clipPath>
</defs>
</svg>
