<svg width="18" height="16" viewBox="0 0 18 16" fill="none" xmlns="http://www.w3.org/2000/svg">
<path d="M2.46154 3.38461C2.46154 2.48696 2.81813 1.62607 3.45287 0.99133C4.0876 0.356592 4.94849 0 5.84615 0C6.7438 0 7.60469 0.356592 8.23943 0.99133C8.87417 1.62607 9.23076 2.48696 9.23076 3.38461C9.23076 4.28227 8.87417 5.14316 8.23943 5.7779C7.60469 6.41263 6.7438 6.76923 5.84615 6.76923C4.94849 6.76923 4.0876 6.41263 3.45287 5.7779C2.81813 5.14316 2.46154 4.28227 2.46154 3.38461ZM10.4615 5.23077C10.4615 4.86711 10.5332 4.50701 10.6723 4.17103C10.8115 3.83505 11.0155 3.52977 11.2726 3.27262C11.5298 3.01548 11.835 2.8115 12.171 2.67233C12.507 2.53316 12.8671 2.46154 13.2308 2.46154C13.5944 2.46154 13.9545 2.53316 14.2905 2.67233C14.6265 2.8115 14.9318 3.01548 15.1889 3.27262C15.446 3.52977 15.65 3.83505 15.7892 4.17103C15.9284 4.50701 16 4.86711 16 5.23077C16 5.96521 15.7082 6.66957 15.1889 7.18891C14.6696 7.70824 13.9652 7.99999 13.2308 7.99999C12.4963 7.99999 11.792 7.70824 11.2726 7.18891C10.7533 6.66957 10.4615 5.96521 10.4615 5.23077ZM0 13.8461C2.31042e-08 12.2956 0.615932 10.8087 1.7123 9.71229C2.80866 8.61593 4.29565 7.99999 5.84615 7.99999C7.39664 7.99999 8.88364 8.61593 9.98 9.71229C11.0764 10.8087 11.6923 12.2956 11.6923 13.8461V13.8486L11.6915 13.9462C11.6897 14.0506 11.6615 14.1528 11.6094 14.2432C11.5573 14.3336 11.483 14.4093 11.3936 14.4632C9.71913 15.4715 7.80083 16.003 5.84615 16C3.81784 16 1.91918 15.4388 0.299487 14.4632C0.209929 14.4094 0.135521 14.3338 0.083271 14.2434C0.0310205 14.1529 0.00264643 14.0507 0.000820551 13.9462L0 13.8461ZM12.9231 13.8486L12.9222 13.9668C12.9177 14.2402 12.8524 14.5093 12.7311 14.7544C14.1634 14.8428 15.5942 14.5572 16.8829 13.9257C16.9825 13.877 17.0672 13.8023 17.1278 13.7094C17.1885 13.6165 17.2229 13.509 17.2275 13.3981C17.2564 12.7099 17.1072 12.0259 16.7942 11.4123C16.4812 10.7987 16.015 10.2763 15.4408 9.89579C14.8667 9.51524 14.204 9.28942 13.5169 9.24018C12.8299 9.19095 12.1417 9.31997 11.5192 9.61476C12.4326 10.8362 12.9249 12.321 12.9222 13.8461V13.8486H12.9231Z" fill="#475569"/>
</svg>
